<?xml version="1.0" encoding="utf-8"?>
<!-- Generator: Adobe Illustrator 22.0.0, SVG Export Plug-In . SVG Version: 6.00 Build 0)  -->
<svg version="1.1" id="Calque_1" xmlns="http://www.w3.org/2000/svg" xmlns:xlink="http://www.w3.org/1999/xlink" x="0px" y="0px"
	 viewBox="0 0 448 450.8" style="enable-background:new 0 0 448 450.8;" xml:space="preserve">
<style type="text/css">
	.st0{fill:#FFFFFF;}
</style>
<path class="st0" d="M416,1.8H31.9C14.3,1.8,0,16.3,0,34.1v383.4c0,17.8,14.3,32.3,31.9,32.3H416c17.6,0,32-14.5,32-32.3V34.1
	C448,16.3,433.6,1.8,416,1.8z M135.4,385.8H69V172h66.5v213.8H135.4z M102.2,142.8c-21.3,0-38.5-17.3-38.5-38.5s17.2-38.5,38.5-38.5
	c21.2,0,38.5,17.3,38.5,38.5C140.7,125.6,123.5,142.8,102.2,142.8z M384.3,385.8h-66.4v-104c0-24.8-0.5-56.7-34.5-56.7
	c-34.6,0-39.9,27-39.9,54.9v105.8h-66.4V172h63.7v29.2h0.9c8.9-16.8,30.6-34.5,62.9-34.5c67.2,0,79.7,44.3,79.7,101.9V385.8z"/>
</svg>
