<?xml version="1.0" encoding="utf-8"?>
<!-- Generator: Adobe Illustrator 22.0.0, SVG Export Plug-In . SVG Version: 6.00 Build 0)  -->
<svg version="1.1" id="Calque_1" xmlns="http://www.w3.org/2000/svg" xmlns:xlink="http://www.w3.org/1999/xlink" x="0px" y="0px"
	 viewBox="0 0 218 218" style="enable-background:new 0 0 218 218;" xml:space="preserve">
<style type="text/css">
	.st0{display:none;}
	.st1{fill:#742D2D;}
</style>
<g id="Calque_0_xA0_Image_1_" class="st0">
</g>
<g id="Calque_2_1_">
	<path class="st1" d="M189.4,107.9c0.1-0.1-47.4-57.1-47.5-57.9c-0.4-2,4-7.2,4-7.2c3.3-3.6,5.7-7.8,9.7-4.1
		c9,8.4,13.2,16.2,30.1,34.9c12,13.3,17.4,19.9,25.5,30.1c0.7,0.9,3.1,3.5-0.3,7.8c-4.6,5.5-35.5,38.4-66.1,69.4
		c-1.5,1.5-4.6,5-7.8,3.3c-1.1-0.7-6.3-8.5-6.5-9.1c-1.3-3.5,2.4-6.3,3.4-7.5C146.5,153,189.3,108.1,189.4,107.9z"/>
	<path class="st1" d="M28.3,105.9c-0.1-0.2,54-51,54.2-51.7c0.7-1.9-3-7.6-3-7.6c-2.9-4-4.8-8.4-9.1-5.2c-10,7.2-15,14.4-34.1,30.9
		C22.7,84,16.6,90,7.3,99.1c-0.8,0.8-3.5,3.1-0.7,7.7c3.8,6.1,30.5,42.4,57.1,76.9c1.3,1.6,4,5.6,7.3,4.2c1.1-0.5,7.2-7.6,7.5-8.3
		c1.7-3.3-1.6-6.6-2.5-7.9C65.4,155.9,28.4,106.1,28.3,105.9z"/>
	<g id="Calque_3">
		<path class="st1" d="M90.1,195.7c-0.4-2,19.2-153.4,22.1-169.5c0.5-2.9,3.5-4.5,3.5-4.5c0.5-0.4,4.9-4,9-2.9
			c3.3,1,5.7,4.3,5.5,5.7c-2.1,22.8-19.5,152.2-21.2,165.1c-0.2,1.1-0.7,5.9-4.3,9c-0.2,0.2-4.4,3.7-8.7,2.6
			C92.6,200.3,90.6,197.8,90.1,195.7z"/>
	</g>
</g>
</svg>
