<?xml version="1.0" encoding="utf-8"?>
<!-- Generator: Adobe Illustrator 22.0.0, SVG Export Plug-In . SVG Version: 6.00 Build 0)  -->
<svg version="1.1" id="Calque_0_xA0_Image_1_" xmlns="http://www.w3.org/2000/svg" xmlns:xlink="http://www.w3.org/1999/xlink"
	 x="0px" y="0px" viewBox="0 0 221.9 221.9" style="enable-background:new 0 0 221.9 221.9;" xml:space="preserve">
<style type="text/css">
	.st0{fill:none;stroke:#B03D30;stroke-width:15;stroke-miterlimit:10;}
	.st1{fill:none;stroke:#DA8B92;stroke-width:17;stroke-miterlimit:10;}
	.st2{fill:#B03D30;}
</style>
<path class="st0" d="M35.5,17.6l152.1,0.2c3.1,0,5.6,2.3,5.6,5.2L193,199.2c0,2.8-2.6,5.1-5.6,5.1l-152.1-0.2
	c-3.1,0-5.6-2.3-5.6-5.2l0.1-176.1C29.7,19.9,32.3,17.6,35.5,17.6z"/>
<path class="st1" d="M54.9,74.2"/>
<path class="st2" d="M159.1,116.5H62.7c-4.7,0-8.5-4.6-8.5-10.5l0,0c0-5.8,3.8-10.5,8.5-10.5h96.5c4.7,0,8.5,4.6,8.5,10.5l0,0
	C167.6,111.9,163.9,116.5,159.1,116.5z"/>
<path class="st2" d="M159.1,71.9H62.7c-4.7,0-8.5-4.6-8.5-10.6l0,0c0-5.9,3.8-10.6,8.5-10.6h96.5c4.7,0,8.5,4.6,8.5,10.6l0,0
	C167.6,67.1,163.8,71.9,159.1,71.9z"/>
<path class="st2" d="M150.3,144.3c-11,0-19.9,8.8-20,19.8c0,11,8.8,19.9,19.8,20c11,0,19.9-8.8,20-19.8
	C170.1,153.3,161.3,144.4,150.3,144.3z"/>
</svg>
